<svg width="1921" height="568" viewBox="0 0 1921 568" fill="none" xmlns="http://www.w3.org/2000/svg">
<path d="M187.5 332H268.75C287.417 332 301.667 336.083 311.5 344.25C321.5 352.25 326.5 363.083 326.5 376.75C326.5 385.25 324.167 392.917 319.5 399.75C314.833 406.417 308.667 411.25 301 414.25C311.333 416.75 319.5 421.75 325.5 429.25C331.5 436.75 334.5 446.167 334.5 457.5C334.5 473.167 329.25 485.833 318.75 495.5C308.417 505.167 294.917 510 278.25 510H187.5V332ZM218 357.25V406.25H260.5C272.5 406.25 281.333 404.417 287 400.75C292.667 396.917 295.5 390.583 295.5 381.75C295.5 371.75 292.5 365.167 286.5 362C280.667 358.833 272.333 357.25 261.5 357.25H218ZM218 428.75V484.5H264.75C276.75 484.5 286.167 482.5 293 478.5C299.833 474.5 303.25 467.25 303.25 456.75C303.25 450.917 302.167 446.083 300 442.25C298 438.25 295 435.333 291 433.5C287.167 431.667 283.167 430.417 279 429.75C274.833 429.083 269.917 428.75 264.25 428.75H218ZM483.275 381H511.775V510H483.275V381ZM454.025 438.75C461.692 445.917 465.525 455.917 465.525 468.75C465.525 481.583 461.692 491.667 454.025 499C446.359 506.333 435.609 510 421.775 510H358.775V381H387.275V427.75H421.525C435.525 427.75 446.359 431.417 454.025 438.75ZM437.025 469.25C437.025 463.417 435.359 458.75 432.025 455.25C428.692 451.75 424.025 450 418.025 450H387.275V487.75H418.525C424.692 487.75 429.275 486.083 432.275 482.75C435.442 479.25 437.025 474.75 437.025 469.25ZM657.445 461.25C655.445 477.083 649.112 489.75 638.445 499.25C627.779 508.583 614.362 513.25 598.195 513.25C578.862 513.25 563.445 507.167 551.945 495C540.445 482.667 534.695 466.583 534.695 446.75C534.695 425.417 540.445 408.5 551.945 396C563.612 383.333 579.279 377 598.945 377C615.445 377 628.695 381.167 638.695 389.5C648.862 397.833 654.779 409.417 656.445 424.25H628.195C626.529 416.083 623.195 409.833 618.195 405.5C613.195 401.167 606.862 399 599.195 399C588.195 399 579.529 403.167 573.195 411.5C566.862 419.667 563.695 430.917 563.695 445.25C563.695 459.583 566.695 470.75 572.695 478.75C578.862 486.75 587.362 490.75 598.195 490.75C606.695 490.75 613.612 488.25 618.945 483.25C624.445 478.083 627.945 470.75 629.445 461.25H657.445ZM739.111 377.25C758.778 377.25 774.445 383.417 786.111 395.75C797.778 408.083 803.611 424.667 803.611 445.5C803.611 466.5 797.778 483.167 786.111 495.5C774.611 507.833 758.945 514 739.111 514C718.945 514 702.945 507.833 691.111 495.5C679.278 483.167 673.361 466.5 673.361 445.5C673.361 424.667 679.278 408.083 691.111 395.75C703.111 383.417 719.111 377.25 739.111 377.25ZM765.111 412C758.778 403.833 749.945 399.75 738.611 399.75C727.278 399.75 718.361 403.833 711.861 412C705.361 420.167 702.111 431.333 702.111 445.5C702.111 460 705.361 471.333 711.861 479.5C718.361 487.667 727.361 491.75 738.861 491.75C750.028 491.75 758.778 487.667 765.111 479.5C771.611 471.167 774.861 459.75 774.861 445.25C774.861 431.083 771.611 420 765.111 412ZM924.375 403.5H881.875V510H853.375V403.5H810.875V381H924.375V403.5ZM1061.09 510H1026.59L986.092 452.25L969.092 470V510H940.592V381H969.092V438.25L1020.59 381H1055.34L1005.09 432.75L1061.09 510ZM1073.62 420.75C1076.62 391.583 1095.45 377 1130.12 377C1146.29 377 1159.12 380.167 1168.62 386.5C1178.29 392.833 1183.12 402.667 1183.12 416V481.5C1183.12 485.167 1183.54 487.667 1184.37 489C1185.37 490.333 1187.2 491 1189.87 491C1191.87 491 1194.04 490.833 1196.37 490.5V510.5C1189.04 512.333 1182.87 513.25 1177.87 513.25C1165.7 513.25 1158.7 508.083 1156.87 497.75C1146.04 508.083 1130.95 513.25 1111.62 513.25C1098.29 513.25 1087.7 509.833 1079.87 503C1072.04 496 1068.12 486.583 1068.12 474.75C1068.12 471.083 1068.54 467.667 1069.37 464.5C1070.2 461.333 1071.12 458.583 1072.12 456.25C1073.29 453.917 1075.04 451.75 1077.37 449.75C1079.87 447.75 1081.87 446.083 1083.37 444.75C1085.04 443.417 1087.62 442.167 1091.12 441C1094.79 439.833 1097.45 439 1099.12 438.5C1100.95 437.833 1104.04 437.167 1108.37 436.5C1112.7 435.833 1115.54 435.417 1116.87 435.25C1118.37 434.917 1121.37 434.5 1125.87 434C1136.04 432.667 1142.95 431.583 1146.62 430.75C1150.29 429.75 1152.79 428.333 1154.12 426.5C1155.29 425.167 1155.87 422.083 1155.87 417.25C1155.87 404.25 1147.04 397.75 1129.37 397.75C1120.04 397.75 1113.2 399.5 1108.87 403C1104.54 406.5 1101.79 412.417 1100.62 420.75H1073.62ZM1155.62 445.25C1153.45 446.417 1150.95 447.5 1148.12 448.5C1145.29 449.333 1142.95 449.917 1141.12 450.25C1139.45 450.417 1136.7 450.75 1132.87 451.25C1129.2 451.75 1126.79 452.083 1125.62 452.25C1122.12 452.75 1119.37 453.25 1117.37 453.75C1115.37 454.083 1112.87 454.75 1109.87 455.75C1107.04 456.75 1104.79 458 1103.12 459.5C1101.62 460.833 1100.29 462.75 1099.12 465.25C1097.95 467.583 1097.37 470.417 1097.37 473.75C1097.37 479.917 1099.37 484.667 1103.37 488C1107.54 491.333 1113.29 493 1120.62 493C1133.29 493 1143.04 489.583 1149.87 482.75C1153.7 478.917 1155.62 471.5 1155.62 460.5V445.25ZM1361.04 332V510H1329.79V359H1248.29V510H1217.04V332H1361.04ZM1508.21 510H1479.71V403.5H1440.21L1438.46 460C1437.96 476.833 1434.29 489.917 1427.46 499.25C1420.79 508.417 1411.62 513 1399.96 513C1392.79 513 1386.96 512.083 1382.46 510.25V488C1384.12 488.833 1387.54 489.25 1392.71 489.25C1404.04 489.25 1410.04 478.583 1410.71 457.25L1412.96 381H1508.21V510ZM1652.26 377.25C1671.26 377.25 1686.34 383.417 1697.51 395.75C1708.68 408.083 1714.26 424.667 1714.26 445.5C1714.26 466.5 1708.68 483.167 1697.51 495.5C1686.34 507.833 1671.26 514 1652.26 514C1634.26 514 1619.59 508.583 1608.26 497.75C1597.09 486.917 1590.84 472.167 1589.51 453.5H1566.26V510H1537.76V381H1566.26V432H1590.01C1592.34 415 1599.01 401.667 1610.01 392C1621.18 382.167 1635.26 377.25 1652.26 377.25ZM1676.51 412C1670.68 403.833 1662.43 399.75 1651.76 399.75C1641.09 399.75 1632.76 403.833 1626.76 412C1620.76 420.167 1617.76 431.333 1617.76 445.5C1617.76 460 1620.76 471.333 1626.76 479.5C1632.76 487.667 1641.18 491.75 1652.01 491.75C1662.51 491.75 1670.68 487.667 1676.51 479.5C1682.51 471.167 1685.51 459.75 1685.51 445.25C1685.51 431.083 1682.51 420 1676.51 412ZM1855.2 461.25C1853.2 477.083 1846.87 489.75 1836.2 499.25C1825.53 508.583 1812.12 513.25 1795.95 513.25C1776.62 513.25 1761.2 507.167 1749.7 495C1738.2 482.667 1732.45 466.583 1732.45 446.75C1732.45 425.417 1738.2 408.5 1749.7 396C1761.37 383.333 1777.03 377 1796.7 377C1813.2 377 1826.45 381.167 1836.45 389.5C1846.62 397.833 1852.53 409.417 1854.2 424.25H1825.95C1824.28 416.083 1820.95 409.833 1815.95 405.5C1810.95 401.167 1804.62 399 1796.95 399C1785.95 399 1777.28 403.167 1770.95 411.5C1764.62 419.667 1761.45 430.917 1761.45 445.25C1761.45 459.583 1764.45 470.75 1770.45 478.75C1776.62 486.75 1785.12 490.75 1795.95 490.75C1804.45 490.75 1811.37 488.25 1816.7 483.25C1822.2 478.083 1825.7 470.75 1827.2 461.25H1855.2Z" fill="black"/>
<path fill-rule="evenodd" clip-rule="evenodd" d="M113.5 509.5H8.5V97.5H139V171H119C114.803 170.999 113.717 172.083 113.5 175.5V509.5ZM83.5 121.5H56.5C53.1601 121.365 52.3782 122.331 52.5 125.5V151.5C52.4851 154.352 52.9702 155.548 56.5 155.5H84C86.5979 155.487 87.6136 154.925 87.5 151.5V125.5C87.6132 122.455 87.1565 121.256 83.5 121.5ZM84 185H57C53.6601 184.865 52.8782 185.831 53 189V215C52.9851 217.852 53.4702 219.048 57 219H84.5C87.0979 218.987 88.1136 218.425 88 215V189C88.1132 185.955 87.6565 184.756 84 185ZM84 247H57C53.6601 246.865 52.8782 247.831 53 251V277C52.9851 279.852 53.4702 281.048 57 281H84.5C87.0979 280.987 88.1136 280.425 88 277V251C88.1132 247.955 87.6565 246.756 84 247ZM84 309.5H57C53.6601 309.365 52.8782 310.331 53 313.5V339.5C52.9851 342.352 53.4702 343.548 57 343.5H84.5C87.0979 343.487 88.1136 342.925 88 339.5V313.5C88.1132 310.455 87.6565 309.256 84 309.5ZM84 376.5H57C53.6601 376.365 52.8782 377.331 53 380.5V406.5C52.9851 409.352 53.4702 410.548 57 410.5H84.5C87.0979 410.487 88.1136 409.925 88 406.5V380.5C88.1132 377.455 87.6565 376.256 84 376.5ZM84 439H57C53.6601 438.865 52.8782 439.831 53 443V469C52.9851 471.852 53.4702 473.048 57 473H84.5C87.0979 472.987 88.1136 472.425 88 469V443C88.1132 439.955 87.6565 438.756 84 439Z" fill="#384F66"/>
<path d="M139 171V97.5H8.5V509.5H113.5V175.5C113.717 172.083 114.803 170.999 119 171M139 171C139 171 126.81 171 119 171M139 171H119M56.5 121.5H83.5C87.1565 121.256 87.6132 122.455 87.5 125.5V151.5C87.6136 154.925 86.5979 155.487 84 155.5H56.5C52.9702 155.548 52.4851 154.352 52.5 151.5V125.5C52.3782 122.331 53.1601 121.365 56.5 121.5ZM57 185H84C87.6565 184.756 88.1132 185.955 88 189V215C88.1136 218.425 87.0979 218.987 84.5 219H57C53.4702 219.048 52.9851 217.852 53 215V189C52.8782 185.831 53.6601 184.865 57 185ZM57 247H84C87.6565 246.756 88.1132 247.955 88 251V277C88.1136 280.425 87.0979 280.987 84.5 281H57C53.4702 281.048 52.9851 279.852 53 277V251C52.8782 247.831 53.6601 246.865 57 247ZM57 309.5H84C87.6565 309.256 88.1132 310.455 88 313.5V339.5C88.1136 342.925 87.0979 343.487 84.5 343.5H57C53.4702 343.548 52.9851 342.352 53 339.5V313.5C52.8782 310.331 53.6601 309.365 57 309.5ZM57 376.5H84C87.6565 376.256 88.1132 377.455 88 380.5V406.5C88.1136 409.925 87.0979 410.487 84.5 410.5H57C53.4702 410.548 52.9851 409.352 53 406.5V380.5C52.8782 377.331 53.6601 376.365 57 376.5ZM57 439H84C87.6565 438.756 88.1132 439.955 88 443V469C88.1136 472.425 87.0979 472.987 84.5 473H57C53.4702 473.048 52.9851 471.852 53 469V443C52.8782 439.831 53.6601 438.865 57 439Z" stroke="#384F66"/>
<path fill-rule="evenodd" clip-rule="evenodd" d="M127 509.5V185H265V299H241.5V274.5C241.538 271.993 241 271.115 238.5 271H211C207.742 270.842 206.953 271.686 207 274.5V298.5H185.5V274.5C185.633 272.035 185.306 271.135 183.5 271H155C152.171 270.966 151.372 271.701 151.5 274.5V509.5H127ZM182 208.5H154.5C152.295 208.405 151.927 209.246 152 211.5V239.5C152.036 241.45 152.557 242.025 154.5 242H182.5C184.95 242.058 185.486 241.413 185.5 239.5V211.5C185.511 209.158 184.585 208.655 182 208.5ZM238 208.5H210.5C208.295 208.405 207.927 209.246 208 211.5V239.5C208.036 241.45 208.557 242.025 210.5 242H238.5C240.95 242.058 241.486 241.413 241.5 239.5V211.5C241.511 209.158 240.585 208.655 238 208.5Z" fill="#384F66" stroke="#384F66"/>
<path fill-rule="evenodd" clip-rule="evenodd" d="M255.5 171.5V1H393V268V298.832C389.5 298.832 368.5 299 364.5 299H342V284.5C342.089 281.72 341.39 281.012 339 281H310C307.706 280.999 306.98 281.583 307 284V299H279.5V175.76C279.475 172.307 278.364 171.504 275 171.5H255.5ZM338 26.5H310C307.675 26.3835 307.027 27.0543 307 29.5V57.5C306.982 60.3181 307.811 61.1272 311 61H338C340.899 61.0835 341.603 60.259 341.5 57.5V29.5C341.476 26.8957 340.529 26.4315 338 26.5ZM338 89H310C307.675 88.8835 307.027 89.5543 307 92V120C306.982 122.818 307.811 123.627 311 123.5H338C340.899 123.584 341.603 122.759 341.5 120V92C341.476 89.3957 340.529 88.9315 338 89ZM338 152H310C307.675 151.884 307.027 152.554 307 155V183C306.982 185.818 307.811 186.627 311 186.5H338C340.899 186.584 341.603 185.759 341.5 183V155C341.476 152.396 340.529 151.932 338 152ZM338 215H310C307.675 214.884 307.027 215.554 307 218V246C306.982 248.818 307.811 249.627 311 249.5H338C340.899 249.584 341.603 248.759 341.5 246V218C341.476 215.396 340.529 214.932 338 215Z" fill="#384F66" stroke="#384F66"/>
</svg>
