<?xml version="1.0" encoding="iso-8859-1"?>
<!-- Uploaded to: SVG Repo, www.svgrepo.com, Generator: SVG Repo Mixer Tools -->
<svg fill="#356089" height="800px" width="800px" version="1.1" id="Layer_1" xmlns="http://www.w3.org/2000/svg" xmlns:xlink="http://www.w3.org/1999/xlink"
	 viewBox="0 0 512 512" xml:space="preserve">
<g>
	<g>
		<path d="M466.014,124.534c-6.209,0-12.133,1.244-17.542,3.484V92.681c0-33.287-27.082-60.369-60.369-60.369H123.898
			c-33.287,0-60.369,27.082-60.369,60.369v35.339c-5.409-2.241-11.332-3.484-17.542-3.484C20.629,124.534,0,145.165,0,170.522
			v251.664c0,7.855,6.367,14.222,14.222,14.222h483.556c7.855,0,14.222-6.367,14.222-14.222V170.522
			C512,145.165,491.371,124.534,466.014,124.534z M91.974,170.522V92.681c0-17.603,14.32-31.925,31.925-31.925h264.205
			c17.603,0,31.925,14.322,31.925,31.925v77.841v27.069c-11.194-8.057-24.907-12.821-39.723-12.821H131.696
			c-14.814,0-28.528,4.764-39.723,12.821V170.522z M91.974,314.711h210.604c7.855,0,14.222-6.367,14.222-14.222
			c0-7.855-6.367-14.222-14.222-14.222H91.974v-33.331c0-21.902,17.819-39.723,39.723-39.723h248.609
			c21.902,0,39.723,17.819,39.723,39.723v84.292H91.974V314.711z M483.556,407.963H28.444V170.522
			c0-9.673,7.869-17.542,17.542-17.542s17.542,7.869,17.542,17.542v82.415v98.515c0,7.855,6.367,14.222,14.222,14.222h356.497
			c7.855,0,14.222-6.367,14.222-14.222v-98.515v-82.415c0-9.673,7.869-17.542,17.542-17.542c9.672,0,17.544,7.869,17.544,17.542
			V407.963z"/>
	</g>
</g>
<g>
	<g>
		<path d="M56.651,451.244H15.882c-7.855,0-14.222,6.367-14.222,14.222c0,7.855,6.367,14.222,14.222,14.222h40.771
			c7.855,0,14.222-6.367,14.222-14.222C70.875,457.611,64.506,451.244,56.651,451.244z"/>
	</g>
</g>
<g>
	<g>
		<path d="M496.118,451.244h-40.771c-7.855,0-14.222,6.367-14.222,14.222c0,7.855,6.367,14.222,14.222,14.222h40.771
			c7.855,0,14.222-6.367,14.222-14.222C510.34,457.611,503.973,451.244,496.118,451.244z"/>
	</g>
</g>
<g>
	<g>
		<path d="M359.182,297.714c-0.171-0.91-0.455-1.806-0.811-2.66c-0.356-0.868-0.796-1.692-1.308-2.46
			c-0.512-0.782-1.109-1.508-1.764-2.162s-1.38-1.252-2.162-1.764c-0.768-0.512-1.593-0.953-2.46-1.308
			c-0.853-0.356-1.749-0.626-2.66-0.811c-1.835-0.37-3.712-0.37-5.547,0c-0.91,0.185-1.806,0.455-2.66,0.811
			c-0.868,0.356-1.692,0.796-2.46,1.308c-0.782,0.512-1.508,1.109-2.162,1.764s-1.252,1.38-1.764,2.162
			c-0.512,0.768-0.953,1.593-1.308,2.46c-0.356,0.853-0.64,1.749-0.811,2.66c-0.185,0.91-0.284,1.849-0.284,2.773
			s0.1,1.863,0.284,2.788c0.171,0.896,0.455,1.792,0.811,2.66c0.356,0.853,0.796,1.678,1.308,2.446
			c0.512,0.782,1.109,1.508,1.764,2.162s1.38,1.252,2.162,1.778c0.768,0.512,1.593,0.939,2.46,1.294
			c0.853,0.356,1.749,0.64,2.66,0.825c0.91,0.185,1.849,0.27,2.773,0.27s1.863-0.085,2.773-0.27c0.91-0.185,1.806-0.469,2.66-0.825
			c0.868-0.356,1.692-0.782,2.46-1.294c0.782-0.526,1.508-1.124,2.162-1.778s1.252-1.38,1.764-2.162
			c0.512-0.768,0.953-1.593,1.308-2.446c0.356-0.868,0.64-1.764,0.811-2.66c0.185-0.924,0.284-1.863,0.284-2.788
			S359.367,298.624,359.182,297.714z"/>
	</g>
</g>
</svg>
