<svg width="40" height="40" viewBox="0 0 40 40" fill="none" xmlns="http://www.w3.org/2000/svg">
<path fill-rule="evenodd" clip-rule="evenodd" d="M8.62902 4.83188C9.54885 2.78781 12.4512 2.78781 13.371 4.83188L19.8965 19.3329C20.6707 21.0534 19.4122 22.9999 17.5255 22.9999H14V20.9999H17.5255C17.9609 20.9999 18.2513 20.5507 18.0726 20.1536L11.5472 5.65261C11.3349 5.1809 10.6651 5.1809 10.4529 5.65261L3.9274 20.1536C3.74873 20.5507 4.03916 20.9999 4.47456 20.9999H10L10 14H12L12 25.126C13.7252 25.5701 15 27.1362 15 29V37H7V29C7 27.1362 8.27477 25.5701 10 25.126V22.9999H4.47456C2.58785 22.9999 1.32932 21.0534 2.10356 19.3329L8.62902 4.83188ZM9 29C9 27.8954 9.89543 27 11 27C12.1046 27 13 27.8954 13 29V35H9V29Z" fill="#356089"/>
<path d="M33.2998 31.8878C33.7641 34.5571 31.7094 37 29 37C26.2906 37 24.2359 34.5571 24.7002 31.8878L25.781 25.673C25.8664 25.1821 25.6896 24.6822 25.3146 24.354L22.4536 21.8507C22.1653 21.5984 22 21.2341 22 20.851V19H24V20.5462L26.6316 22.8489C27.532 23.6367 27.9564 24.837 27.7514 26.0157L26.6706 32.2305C26.4191 33.6766 27.5322 35 29 35C30.4678 35 31.5809 33.6766 31.3294 32.2305L30.2486 26.0157C30.0436 24.837 30.468 23.6367 31.3684 22.8489L34 20.5462V19H36V20.8511C36 21.2341 35.8347 21.5984 35.5464 21.8507L32.6854 24.354C32.3104 24.6822 32.1336 25.1821 32.219 25.673L33.2998 31.8878Z" fill="#356089"/>
<path d="M19.646 4H29V6H22.3539L25.7385 17H32.2044L34.7429 6H32.9249L31.8465 11H29.8005L31.3103 4H37.257L33.7955 19H24.2614L19.646 4Z" fill="#356089"/>
</svg>
